<mxfile host="app.diagrams.net" modified="2023-02-16T08:46:06.191Z" agent="5.0 (Windows NT 10.0; Win64; x64) AppleWebKit/537.36 (KHTML, like Gecko) Chrome/110.0.0.0 Safari/537.36" etag="qeBlRkW8ESemd_xFb7bj" version="20.8.20" type="github">
  <diagram id="C5RBs43oDa-KdzZeNtuy" name="Page-1">
    <mxGraphModel dx="1434" dy="796" grid="1" gridSize="10" guides="1" tooltips="1" connect="1" arrows="1" fold="1" page="1" pageScale="1" pageWidth="827" pageHeight="1169" math="0" shadow="0">
      <root>
        <mxCell id="WIyWlLk6GJQsqaUBKTNV-0" />
        <mxCell id="WIyWlLk6GJQsqaUBKTNV-1" parent="WIyWlLk6GJQsqaUBKTNV-0" />
        <mxCell id="G7kbPxBoqrOvlIeg4NMY-15" style="edgeStyle=orthogonalEdgeStyle;rounded=0;orthogonalLoop=1;jettySize=auto;html=1;exitX=0.5;exitY=1;exitDx=0;exitDy=0;" edge="1" parent="WIyWlLk6GJQsqaUBKTNV-1" source="G7kbPxBoqrOvlIeg4NMY-0" target="G7kbPxBoqrOvlIeg4NMY-5">
          <mxGeometry relative="1" as="geometry" />
        </mxCell>
        <mxCell id="G7kbPxBoqrOvlIeg4NMY-0" value="START" style="ellipse;whiteSpace=wrap;html=1;" vertex="1" parent="WIyWlLk6GJQsqaUBKTNV-1">
          <mxGeometry x="290" y="120" width="120" height="80" as="geometry" />
        </mxCell>
        <mxCell id="G7kbPxBoqrOvlIeg4NMY-1" value="STOP" style="ellipse;whiteSpace=wrap;html=1;" vertex="1" parent="WIyWlLk6GJQsqaUBKTNV-1">
          <mxGeometry x="294" y="545" width="120" height="80" as="geometry" />
        </mxCell>
        <mxCell id="G7kbPxBoqrOvlIeg4NMY-18" style="edgeStyle=orthogonalEdgeStyle;rounded=0;orthogonalLoop=1;jettySize=auto;html=1;exitX=0.5;exitY=1;exitDx=0;exitDy=0;" edge="1" parent="WIyWlLk6GJQsqaUBKTNV-1" source="G7kbPxBoqrOvlIeg4NMY-5" target="G7kbPxBoqrOvlIeg4NMY-17">
          <mxGeometry relative="1" as="geometry" />
        </mxCell>
        <mxCell id="G7kbPxBoqrOvlIeg4NMY-5" value="PODAJ A&lt;br&gt;WYNIK = 0&lt;br&gt;I = 0" style="rounded=0;whiteSpace=wrap;html=1;" vertex="1" parent="WIyWlLk6GJQsqaUBKTNV-1">
          <mxGeometry x="290" y="240" width="120" height="60" as="geometry" />
        </mxCell>
        <mxCell id="G7kbPxBoqrOvlIeg4NMY-16" value="Remigiusz&lt;br&gt;" style="shape=umlActor;verticalLabelPosition=bottom;verticalAlign=top;html=1;outlineConnect=0;" vertex="1" parent="WIyWlLk6GJQsqaUBKTNV-1">
          <mxGeometry x="60" y="120" width="80" height="130" as="geometry" />
        </mxCell>
        <mxCell id="G7kbPxBoqrOvlIeg4NMY-22" value="NIE&lt;br&gt;" style="edgeStyle=orthogonalEdgeStyle;rounded=0;orthogonalLoop=1;jettySize=auto;html=1;exitX=1;exitY=0.5;exitDx=0;exitDy=0;entryX=0;entryY=0.5;entryDx=0;entryDy=0;" edge="1" parent="WIyWlLk6GJQsqaUBKTNV-1" source="G7kbPxBoqrOvlIeg4NMY-17" target="G7kbPxBoqrOvlIeg4NMY-21">
          <mxGeometry relative="1" as="geometry" />
        </mxCell>
        <mxCell id="G7kbPxBoqrOvlIeg4NMY-24" value="TAK" style="edgeStyle=orthogonalEdgeStyle;rounded=0;orthogonalLoop=1;jettySize=auto;html=1;exitX=0;exitY=0.5;exitDx=0;exitDy=0;" edge="1" parent="WIyWlLk6GJQsqaUBKTNV-1" source="G7kbPxBoqrOvlIeg4NMY-17" target="G7kbPxBoqrOvlIeg4NMY-23">
          <mxGeometry relative="1" as="geometry" />
        </mxCell>
        <mxCell id="G7kbPxBoqrOvlIeg4NMY-17" value="I&amp;lt;długość A" style="rhombus;whiteSpace=wrap;html=1;" vertex="1" parent="WIyWlLk6GJQsqaUBKTNV-1">
          <mxGeometry x="314" y="345" width="80" height="80" as="geometry" />
        </mxCell>
        <mxCell id="G7kbPxBoqrOvlIeg4NMY-21" value="WYSWIETL&amp;nbsp; SUME" style="rounded=0;whiteSpace=wrap;html=1;" vertex="1" parent="WIyWlLk6GJQsqaUBKTNV-1">
          <mxGeometry x="500" y="365" width="120" height="60" as="geometry" />
        </mxCell>
        <mxCell id="G7kbPxBoqrOvlIeg4NMY-25" style="edgeStyle=orthogonalEdgeStyle;rounded=0;orthogonalLoop=1;jettySize=auto;html=1;exitX=0.5;exitY=0;exitDx=0;exitDy=0;entryX=0.575;entryY=0.1;entryDx=0;entryDy=0;entryPerimeter=0;" edge="1" parent="WIyWlLk6GJQsqaUBKTNV-1" source="G7kbPxBoqrOvlIeg4NMY-23" target="G7kbPxBoqrOvlIeg4NMY-17">
          <mxGeometry relative="1" as="geometry">
            <Array as="points">
              <mxPoint x="170" y="390" />
              <mxPoint x="170" y="330" />
              <mxPoint x="272" y="330" />
              <mxPoint x="272" y="340" />
              <mxPoint x="360" y="340" />
            </Array>
          </mxGeometry>
        </mxCell>
        <mxCell id="G7kbPxBoqrOvlIeg4NMY-23" value="WYNIK=WYNIK + A[I]" style="rounded=0;whiteSpace=wrap;html=1;" vertex="1" parent="WIyWlLk6GJQsqaUBKTNV-1">
          <mxGeometry x="120" y="390" width="120" height="60" as="geometry" />
        </mxCell>
      </root>
    </mxGraphModel>
  </diagram>
</mxfile>
